<?xml version="1.0" encoding="UTF-8"?>
<svg version="1.1" viewBox="0 0 640 384" xmlns="http://www.w3.org/2000/svg" xmlns:xlink="http://www.w3.org/1999/xlink">
	<rect id="background" fill="#646f68" width="256" height="128"/>
	<g id="base_tile">
		<rect fill="#98a99e" stroke="#373f38" x="0.5" y="0.5" width="127" height="127" rx="8"/>
		<circle fill="#646f68" r="4" cx="11" cy="11"/>
		<circle fill="#646f68" r="4" cx="117" cy="11"/>
		<circle fill="#646f68" r="4" cx="11" cy="117"/>
		<circle fill="#646f68" r="4" cx="117" cy="117"/>
		<circle fill="#646f68" r="4" cx="117" cy="117"/>
	</g>
	<g id="ventillation" transform="translate(128, 0)">
		<rect fill="#98a99e" stroke="#373f38" x="0.5" y="0.5" width="127" height="127" rx="8"/>
		<g id="ventillation_hole">
			<rect fill="#323734" stroke="#323734" x="8" y="8" width="112" height="16" rx="4"/>
			<rect fill="#626c66" stroke="#323734" x="8" y="13" width="112" height="11" rx="4"/>
		</g>
		<use xlink:href="#ventillation_hole" transform="translate(0, 20)"/>
		<use xlink:href="#ventillation_hole" transform="translate(0, 40)"/>
		<use xlink:href="#ventillation_hole" transform="translate(0, 60)"/>
		<use xlink:href="#ventillation_hole" transform="translate(0, 80)"/>
		<use xlink:href="#ventillation_hole" transform="translate(0, 100)"/>
	</g>
	<g id="panel" transform="translate(256,0)">
		<path fill="#284e36" stroke="#15281c" stroke-width="1.5" d="M 23 8 H 105 L 120 23 V 105 L 105 120 H 23 L 8 105 V 23 Z"/>
		<rect fill="#30a211" stroke="#15281c" stroke-width="1.2" x="20" y="22" width="40" height="20"/>
		<g fill="#668283" stroke="#222b2c" stroke-width="1.2">
			<rect x="20" y="51" width="18" height="15"/>
			<rect x="42" y="51" width="18" height="15"/>
			<rect x="20" y="71" width="18" height="15"/>
			<rect x="42" y="71" width="18" height="15"/>
			<rect x="20" y="91" width="18" height="15"/>
			<rect x="42" y="91" width="18" height="15"/>
		</g>
		<rect fill="#a5c3c3" stroke="#222b2c" stroke-width="1.2" x="71" y="22" width="40" height="84"/>
	</g>
	<g id="ladder" transform="translate(512)">
		<g id="ladder_shadow" fill="#323734">
			<rect x="8" y="16" width="16" height="240" rx="2"/>
			<rect x="102" y="16" width="16" height="240" rx="2"/>
			<rect x="8" y="50" width="104" height="16"/>
			<rect x="8" y="98" width="104" height="16"/>
			<rect x="8" y="142" width="104" height="16"/>
			<rect x="8" y="182" width="104" height="16"/>
			<rect x="8" y="226" width="104" height="16"/>
		</g>
		<g id="ladder_itself" fill="#646f68">
			<rect x="12" y="21" width="10" height="235" rx="1.5"/>
			<rect x="106" y="21" width="10" height="235" rx="1.5"/>
			<rect x="12" y="53" width="104" height="10"/>
			<rect x="12" y="101" width="104" height="10"/>
			<rect x="12" y="145" width="104" height="10"/>
			<rect x="12" y="185" width="104" height="10"/>
			<rect x="12" y="229" width="104" height="10"/>
		</g>
		<g id="ladder_shines" fill="#98a99e">
			<rect x="114" y="21" width="2" height="235"/>
			<rect x="22" y="53" width="84" height="2"/>
			<rect x="22" y="101" width="84" height="2"/>
			<rect x="22" y="145" width="84" height="2"/>
			<rect x="22" y="185" width="84" height="2"/>
			<rect x="22" y="229" width="84" height="2"/>
		</g>
	</g>
	<g id="fan" transform="translate(384)">
		<circle fill="#212321" r="48" cx="64" cy="64"/>
		<g>
			<path id="fan_blade_shine" fill="#7e857f" d="M 108.9 61.4 C 108.9 61.4 111.6 69.9 104.3 77.4 C 98.3 84.5 65.7 77.5 64 50.5 C 78.6 73.1 108.9 61.4 108.9 61.4 Z"/>
			<use xlink:href="#fan_blade_shine" transform="rotate(51.4, 64,64)"/>
			<use xlink:href="#fan_blade_shine" transform="rotate(102.8, 64,64)"/>
			<use xlink:href="#fan_blade_shine" transform="rotate(154.2, 64,64)"/>
			<use xlink:href="#fan_blade_shine" transform="rotate(205.6, 64,64)"/>
			<use xlink:href="#fan_blade_shine" transform="rotate(257, 64,64)"/>
			<use xlink:href="#fan_blade_shine" transform="rotate(308.4, 64,64)"/>
		</g>
		<g>
			<path id="fan_blade" fill="#4e574f" d="M 108.9 61.4 C 108.9 61.4 111.6 69.9 104.3 77.4 C 98.3 84.5 65.7 77.5 64 50.5 C 75.4 74.7 108.4 71.2 108.9 61.4 Z"/>
			<use xlink:href="#fan_blade" transform="rotate(51.4, 64,64)"/>
			<use xlink:href="#fan_blade" transform="rotate(102.8, 64,64)"/>
			<use xlink:href="#fan_blade" transform="rotate(154.2, 64,64)"/>
			<use xlink:href="#fan_blade" transform="rotate(205.6, 64,64)"/>
			<use xlink:href="#fan_blade" transform="rotate(257, 64,64)"/>
			<use xlink:href="#fan_blade" transform="rotate(308.4, 64,64)"/>
		</g>
		<circle fill="#272e27" stroke="#688371" r="8" cx="64" cy="64"/>
	</g>
	<path id="lattice" transform="translate(384, 128)" fill="#c6cfc9" fill-rule="evenodd" stroke="#646f68" stroke-width="1" d="m 13,109.7 h 102.8 c 2.4,0 4.4,2 4.4,4.4 v 2.8 c 0,2.4 -2,4.4 -4.4,4.4 h -102.8 c -2.4,0 -4.4,-2 -4.4,-4.4 v -2.8 c 0,-2.4 2,-4.4 4.4,-4.4 z  m 0,-20 h 102.8 c 2.4,0 4.4,2 4.4,4.4 v 2.8 c 0,2.4 -2,4.4 -4.4,4.4 h -102.8 c -2.4,0 -4.4,-2 -4.4,-4.4 v -2.8 c 0,-2.4 2,-4.4 4.4,-4.4 z  m 0,-20 h 102.8 c 2.4,0 4.4,2 4.4,4.4 v 2.8 c 0,2.4 -2,4.4 -4.4,4.4 h -102.8 c -2.4,0 -4.4,-2 -4.4,-4.4 v -2.8 c 0,-2.4 2,-4.4 4.4,-4.4 z  m 0,-20 h 102.8 c 2.4,0 4.4,2 4.4,4.4 v 2.8 c 0,2.4 -2,4.4 -4.4,4.4 h -102.8 c -2.4,0 -4.4,-2 -4.4,-4.4 v -2.8 c 0,-2.4 2,-4.4 4.4,-4.4 z  m 0,-20 h 102.8 c 2.4,0 4.4,2 4.4,4.4 v 2.8 c 0,2.4 -2,4.4 -4.4,4.4 h -102.8 c -2.4,0 -4.4,-2 -4.4,-4.4 v -2.8 c 0,-2.4 2,-4.4 4.4,-4.4 z  m 0,-20 h 102.8 c 2.4,0 4.4,2 4.4,4.4 v 2.8 c 0,2.4 -2,4.4 -4.4,4.4 h -102.8 c -2.4,0 -4.4,-2 -4.4,-4.4 v -2.8 c 0,-2.4 2,-4.4 4.4,-4.4 z  m -4.5,-9.2 h 111 c 4.4,0 8,3.6 8,8 v 111 c 0,4.4 -3.6,8 -8,8 h -111 c -4.4,0 -8,-3.6 -8,-8 V 8.5 c 0,-4.4 3.6,-8 8,-8 z"/>
	<g id="speaker" transform="translate(256, 128)">
		<circle fill="#4e574f" r="54" cx="64" cy="64"/>
		<g fill="none" stroke="#c8c8c8" stroke-width="1.75">
			<circle fill="#212321" r="47" cx="64" cy="64"/>
			<path d="M 17 64 H 111"/>
			<path d="M 64 17 V 111"/>
			<path d="M 22.5 42 Q 64 34 105.5 42"/>
			<path d="M 22.5 86 Q 64 94 105.5 86"/>
			<path d="M 42 22.5 Q 34 64 42 105.5"/>
			<path d="M 86 22.5 Q 94 64 86 105.5"/>
		</g>
	</g>
	<g id="bullet_holes_1" transform="translate(0, 256)">
		<g id="bullet_hole">
			<path fill="#848484" stroke="#000" stroke-width="0.75" d="M 65.8 77.3 L 63.1 81.9 L 64 87.3 L 57.4 88.7 L 53.8 91.8 L 48 88.6 L 44.2 87.7 L 43.9 83.8 L 40.6 84.4 L 42.9 80.4 L 40.5 76.8 L 44.2 75.7 L 43.9 71.4 L 47.5 71.4 L 51.4 68.5 L 54 70.3 L 58 69.7 L 60.6 73.1 L 64.8 71.8 Z"/>
			<circle fill="#000" r="8" cx="53" cy="80"/>
		</g>
	</g>
	<g id="bullet_holes_2" transform="translate(128, 256)">
		<use xlink:href="#bullet_hole" transform="translate(26.5,7.7)"/>
		<use xlink:href="#bullet_hole" transform="matrix(0,1,1,0,-13.3,-30)"/>
	</g>
	<g id="bullet_holes_3" transform="translate(256, 256)">
		<use xlink:href="#bullet_hole" transform="translate(-11.4,-54.5)"/>
		<use xlink:href="#bullet_hole" transform="matrix(1,0,0,-1,49.6,122.6)"/>
		<use xlink:href="#bullet_hole" transform="matrix(-1,0,0,1,106.3,17.6)"/>
	</g>
	<g id="bullet_holes_4" transform="translate(384, 256)">
		<use xlink:href="#bullet_hole" transform="translate(-13.1,23.5)"/>
		<use xlink:href="#bullet_hole" transform="matrix(-1,0,0,1,147.2,-1.6)"/>
		<use xlink:href="#bullet_hole" transform="matrix(1,0,0,-1,-28.4,114)"/>
		<use xlink:href="#bullet_hole" transform="rotate(180,67.5,49.2)"/>
	</g>
	<g id="bullet_holes_5" transform="translate(512, 256)">
		<use xlink:href="#bullet_hole" transform="translate(-16.4,-51.6)"/>
		<use xlink:href="#bullet_hole" transform="matrix(1,0,0,-1,-17.6,151.4)"/>
		<use xlink:href="#bullet_hole" transform="matrix(-1,0,0,1,149.2,-35.1)"/>
		<use xlink:href="#bullet_hole" transform="rotate(90,56.8,106)"/>
		<use xlink:href="#bullet_hole" transform="rotate(-90,48,63.3)"/>
	</g>
	<g id="claw_scratches" transform="translate(0, 128)">
		<g id="paw_scratches_group">
			<g id="single_claw_scratch">
				<path fill="#848484" d="M 41,7.5 C 3.2,29.5 21,68.4 21,68.4 22.6,37 41,7.5 41,7.5 Z"/>
				<path fill="#383838" d="M 41,7.5 C 12.3,28 21,68.4 21,68.4 23,35.5 36.4,20.9 41,7.5 Z"/>
			</g>
			<use xlink:href="#single_claw_scratch" transform="matrix(0.88,0,0,0.84,14.1,9.6)"/>
			<use xlink:href="#single_claw_scratch" transform="matrix(0.7,-0.04,0.04,0.7,27.4,20.6)"/>
		</g>
		<use xlink:href="#paw_scratches_group" transform="rotate(-40.7,123.7,8.3)"/>
		<use xlink:href="#paw_scratches_group" transform="rotate(-56.2,67.3,-12.8)"/>
	</g>
	<g id="acid_scratch" transform="translate(128,128)">
		<path fill="#696969" d="M 45.1,3.4 47.9,43.2 87.3,53.7 83.7,87.3 67.7,111 71.5,88 69.2,65.5 36.8,51.8 Z"/>
		<g id="acid" fill="#339f3f" stroke="#007f0f">
			<path d="m 49.4,46.5 c 8.7,1.6 10.2,1.3 16.5,5.1 4.7,2.9 12.7,8.2 10.1,13 -3.1,5.6 0.7,15.7 -2.1,20.8 -1.7,3.1 -2.5,-19.4 -5.6,-20.2 -2.5,-0.7 -6,0.3 -6.4,0.1 -2.4,-1.1 -1.7,22.4 -6.3,25.8 -3.2,2.4 -0.6,-13.9 -4,-19.7 -2.4,-4.2 -8.7,-5.2 -11,-9.5 -9.4,-17.1 8.8,-15.5 8.8,-15.5 z"/>
			<path d="M 49.5 108.2 C 44.1 126.3 58.9 121.4 58.8 114.6 C 58.8 107.9 54.9 90.2 49.5 108.2 Z"/>
			<path d="m 70.9,91.7 c -2.5,16.2 3.6,4.7 4,2.3 0.6,-3.5 -2.2,-10.8 -4,-2.3 z"/>
		</g>
		<path fill="#2b2b2ba4" d="m 45.1,3.4 2.8,39.8 39.4,10.5 -3.6,33.6 -16,23.6 L 77.6,81.7 75.3,59.2 42.9,45.5 Z"/>
	</g>
</svg>
