<?xml version="1.0" encoding="UTF-8"?>
<svg version="1.1" viewBox="0 0 384 384" xmlns="http://www.w3.org/2000/svg" xmlns:xlink="http://www.w3.org/1999/xlink">
	<defs>
			<mask id="radiation_mask" fill="#fff">
			<path id="triangle_60" d="M 64,64 L 32,128 L 96,128 Z"/>
			<use xlink:href="#triangle_60" transform="rotate(120, 64, 64)"/>
			<use xlink:href="#triangle_60" transform="rotate(240, 64, 64)"/>
			<circle fill="#000" r="9" cx="64" cy="64"/>
			<circle r="5.5" cx="64" cy="64"/>
		</mask>
		<mask id="pandemic_mask" fill="#fff">
			<g id="pandemic_leaf">
				<circle r="32" cx="64" cy="32"/>
				<circle fill="#000" r="22" cx="64" cy="22"/>
				<path fill="none" stroke="#000" stroke-width="5" d="M 64,40 L 64,64"/>
				<g id="ring_part" mask="url(#ring_part_mask)" fill="#fff">
					<mask id="ring_part_mask">
						<circle r="20" cx="64" cy="20"/>
					</mask>
					<circle r="36" cx="64" cy="64"/>
					<circle fill="#000" r="30" cx="64" cy="64"/>
				</g>
			</g>	
			<use xlink:href="#pandemic_leaf" transform="rotate(120, 64, 64)"/>
			<use xlink:href="#pandemic_leaf" transform="rotate(240, 64, 64)"/>
			<circle fill="#000" r="11" cx="64" cy="64"/>
			<circle r="7.5" cx="64" cy="64"/>
		</mask>
	</defs>
	<g id="sign_1" transform="translate(0, 0)">
		<g id="warning_base_colored" fill="#ffd700" stroke="#000" stroke-width="3">
			<path id="warning_base_triangle" d="M 68.97,23.68 110.03,95.32 A 5.8,5.8 120.09 0 1 105,104 H 23 A 5.8,5.8 59.91 0 1 17.97,95.32 L 59.03,23.68 a 5.73,5.73 0 0 1 9.94,0 z"/>
		</g>
	</g>
	<g id="sign_2" transform="translate(128, 0)">
		<g id="warning_base_shadowed">
			<use xlink:href="#warning_base_triangle" fill="#4e574f" transform="translate(63.5,63) scale(1.15) translate(-64,-64)"/>
			<use xlink:href="#warning_base_colored"/>
		</g>
	</g>
	<g id="sign_3" transform="translate(256, 0)">
		<use xlink:href="#warning_base_shadowed"/>
		<g fill="#bfa100">
			<circle fill="#bfa100" r="3.5" cx="64" cy="28"/>
			<circle fill="#bfa100" r="3.5" cx="24.3" cy="97.4"/>
			<circle fill="#bfa100" r="3.5" cx="103.7" cy="97.4"/>
		</g>
	</g>
	<g id="symbol_exclamation_mark" transform="translate(0, 128)">
		<path d="m 61.5,43.6 h 5 c 1.1,0 2,0.9 2,2 l -1,31 c 0,1.1 -0.9,2 -2,2 h -3 c -1.1,0 -2,-0.9 -2,-2 l -1,-31 c 0,-1.1 0.9,-2 2,-2 z"/>
		<rect x="60" y="82" width="8" height="11" rx="3"/>
	</g>
	<g id="warning_symbol_zipper" transform="translate(0, 256)">
		<path d="M 61,46 H 75 L 67,67 79,66.7 60,99 63,78 H 49 Z"/>
	</g>
	<g id="warning_symbol_fire" transform="translate(128, 128)">
		<path d="m 61.2,84.9 c 1.2,-0.8 5.4,0.1 5.9,0.5 1.1,0.9 3.8,6 -3.1,6 -6.6,0 -4.4,-5.5 -2.8,-6.5 z m -4.3,-5.4 c 1.8,4 5,2.6 6.4,-0.5 1.8,-3.9 -1,-11.2 4.4,-3.4 0.8,0.8 -2.5,10.2 4.6,6.2 1.8,1.6 1.7,10.7 -6.9,10.9 C 50.2,93.1 56.9,79.5 56.9,79.5 Z M 65,95.1 c 18.6,0 16.7,-22.7 13.6,-34 -3,-0.9 0.6,2.9 -5.7,13.3 -6.6,-11.3 -1.8,-28.5 -5,-29.5 0,0 -7.9,5.5 -9.1,9.3 C 57.5,58.5 58,63 58,63 c -0.8,7.5 -4,-7.3 -6.9,-4.8 -2.8,3 -3.9,10.6 -3.5,14.7 1.1,9.2 3.9,22.2 17.4,22.2 z"/>
	</g>
	<g id="warning_symbol_snowflake" transform="translate(128, 256)">
		<g transform="translate(64,75) scale(0.75) translate(-64,-64)">
			<path id="snowflake_ray" fill="none" stroke="#000" stroke-width="5" stroke-linecap="round" d="M 64,64 L 64,95 M 56,90 L 64,80 L 72,90"/>
			<use xlink:href="#snowflake_ray" transform="rotate(60, 64,64)"/>
			<use xlink:href="#snowflake_ray" transform="rotate(120, 64,64)"/>
			<use xlink:href="#snowflake_ray" transform="rotate(180, 64,64)"/>
			<use xlink:href="#snowflake_ray" transform="rotate(240, 64,64)"/>
			<use xlink:href="#snowflake_ray" transform="rotate(300, 64,64)"/>
		</g>
	</g>
	<g id="warning_symbol_radiation" transform="translate(256, 128)">
			<circle fill="#000" r="25" cx="64" cy="64" mask="url(#radiation_mask)" transform="translate(0, 9.5)"/>
	</g>
	<g id="warning_symbol_pandemic" transform="translate(256, 256)">
		<circle fill="#000" r="64" cx="64" cy="64" mask="url(#pandemic_mask)" transform="translate(64,76) scale(0.5) translate(-64,-64)"/>
	</g>
</svg>
